<mxfile host="65bd71144e">
    <diagram id="C5DCdX0o1W7Lc4V-3e3b" name="Page-1">
        <mxGraphModel dx="590" dy="287" grid="1" gridSize="10" guides="1" tooltips="1" connect="1" arrows="1" fold="1" page="1" pageScale="1" pageWidth="827" pageHeight="1169" math="0" shadow="0">
            <root>
                <mxCell id="0"/>
                <mxCell id="1" parent="0"/>
                <mxCell id="18" value="" style="rounded=0;whiteSpace=wrap;html=1;" parent="1" vertex="1">
                    <mxGeometry x="400" y="120" width="190" height="320" as="geometry"/>
                </mxCell>
                <mxCell id="2" value="" style="rounded=0;whiteSpace=wrap;html=1;" parent="1" vertex="1">
                    <mxGeometry x="160" y="120" width="160" height="250" as="geometry"/>
                </mxCell>
                <mxCell id="3" value="Login / signup page" style="text;html=1;strokeColor=none;fillColor=none;align=center;verticalAlign=middle;whiteSpace=wrap;rounded=0;" parent="1" vertex="1">
                    <mxGeometry x="197.5" y="70" width="85" height="30" as="geometry"/>
                </mxCell>
                <mxCell id="5" value="" style="rounded=0;whiteSpace=wrap;html=1;" parent="1" vertex="1">
                    <mxGeometry x="180" y="160" width="120" height="30" as="geometry"/>
                </mxCell>
                <mxCell id="6" value="Username" style="text;html=1;strokeColor=none;fillColor=none;align=center;verticalAlign=middle;whiteSpace=wrap;rounded=0;" parent="1" vertex="1">
                    <mxGeometry x="210" y="130" width="60" height="30" as="geometry"/>
                </mxCell>
                <mxCell id="7" value="" style="rounded=0;whiteSpace=wrap;html=1;" parent="1" vertex="1">
                    <mxGeometry x="180" y="245" width="120" height="30" as="geometry"/>
                </mxCell>
                <mxCell id="8" value="Password" style="text;html=1;strokeColor=none;fillColor=none;align=center;verticalAlign=middle;whiteSpace=wrap;rounded=0;" parent="1" vertex="1">
                    <mxGeometry x="210" y="215" width="60" height="30" as="geometry"/>
                </mxCell>
                <mxCell id="9" value="Login" style="rounded=1;whiteSpace=wrap;html=1;" parent="1" vertex="1">
                    <mxGeometry x="180" y="300" width="50" height="20" as="geometry"/>
                </mxCell>
                <mxCell id="10" value="Register" style="rounded=1;whiteSpace=wrap;html=1;" parent="1" vertex="1">
                    <mxGeometry x="250" y="300" width="50" height="20" as="geometry"/>
                </mxCell>
                <mxCell id="11" value="Recipe name" style="rounded=0;whiteSpace=wrap;html=1;" parent="1" vertex="1">
                    <mxGeometry x="430" y="180" width="130" height="30" as="geometry"/>
                </mxCell>
                <mxCell id="12" value="Recipe name" style="rounded=0;whiteSpace=wrap;html=1;" parent="1" vertex="1">
                    <mxGeometry x="430" y="220" width="130" height="30" as="geometry"/>
                </mxCell>
                <mxCell id="13" value="Recipe name" style="rounded=0;whiteSpace=wrap;html=1;" parent="1" vertex="1">
                    <mxGeometry x="430" y="260" width="130" height="30" as="geometry"/>
                </mxCell>
                <mxCell id="14" value="Recipe name" style="rounded=0;whiteSpace=wrap;html=1;" parent="1" vertex="1">
                    <mxGeometry x="430" y="300" width="130" height="30" as="geometry"/>
                </mxCell>
                <mxCell id="15" value="Recipe name" style="rounded=0;whiteSpace=wrap;html=1;" parent="1" vertex="1">
                    <mxGeometry x="430" y="340" width="130" height="30" as="geometry"/>
                </mxCell>
                <mxCell id="16" value="Recipe name" style="rounded=0;whiteSpace=wrap;html=1;" parent="1" vertex="1">
                    <mxGeometry x="430" y="380" width="130" height="30" as="geometry"/>
                </mxCell>
                <mxCell id="17" value="Add recipe" style="rounded=1;whiteSpace=wrap;html=1;" parent="1" vertex="1">
                    <mxGeometry x="430" y="140" width="60" height="20" as="geometry"/>
                </mxCell>
                <mxCell id="19" value="User's view of their recipes" style="text;html=1;strokeColor=none;fillColor=none;align=center;verticalAlign=middle;whiteSpace=wrap;rounded=0;" parent="1" vertex="1">
                    <mxGeometry x="450.63" y="70" width="88.75" height="30" as="geometry"/>
                </mxCell>
                <mxCell id="20" value="" style="rounded=0;whiteSpace=wrap;html=1;" parent="1" vertex="1">
                    <mxGeometry x="680" y="120" width="190" height="320" as="geometry"/>
                </mxCell>
                <mxCell id="21" value="Recipe info" style="rounded=0;whiteSpace=wrap;html=1;" parent="1" vertex="1">
                    <mxGeometry x="710" y="180" width="130" height="230" as="geometry"/>
                </mxCell>
                <mxCell id="28" value="View Single user's recipe info" style="text;html=1;strokeColor=none;fillColor=none;align=center;verticalAlign=middle;whiteSpace=wrap;rounded=0;" parent="1" vertex="1">
                    <mxGeometry x="721.25" y="70" width="107.5" height="30" as="geometry"/>
                </mxCell>
                <mxCell id="31" value="Delete recipe" style="rounded=1;whiteSpace=wrap;html=1;" parent="1" vertex="1">
                    <mxGeometry x="770" y="140" width="80" height="20" as="geometry"/>
                </mxCell>
                <mxCell id="32" value="Edit recipe" style="rounded=1;whiteSpace=wrap;html=1;" parent="1" vertex="1">
                    <mxGeometry x="700" y="140" width="60" height="20" as="geometry"/>
                </mxCell>
                <mxCell id="34" value="User" style="rounded=0;whiteSpace=wrap;html=1;" parent="1" vertex="1">
                    <mxGeometry x="40" y="530" width="102.5" height="20" as="geometry"/>
                </mxCell>
                <mxCell id="36" value="" style="rounded=0;whiteSpace=wrap;html=1;" parent="1" vertex="1">
                    <mxGeometry x="400" y="570" width="190" height="320" as="geometry"/>
                </mxCell>
                <mxCell id="37" value="Recipe name" style="rounded=0;whiteSpace=wrap;html=1;" parent="1" vertex="1">
                    <mxGeometry x="430" y="630" width="130" height="30" as="geometry"/>
                </mxCell>
                <mxCell id="38" value="Recipe name" style="rounded=0;whiteSpace=wrap;html=1;" parent="1" vertex="1">
                    <mxGeometry x="430" y="670" width="130" height="30" as="geometry"/>
                </mxCell>
                <mxCell id="39" value="Recipe name" style="rounded=0;whiteSpace=wrap;html=1;" parent="1" vertex="1">
                    <mxGeometry x="430" y="710" width="130" height="30" as="geometry"/>
                </mxCell>
                <mxCell id="40" value="Recipe name" style="rounded=0;whiteSpace=wrap;html=1;" parent="1" vertex="1">
                    <mxGeometry x="430" y="750" width="130" height="30" as="geometry"/>
                </mxCell>
                <mxCell id="41" value="Recipe name" style="rounded=0;whiteSpace=wrap;html=1;" parent="1" vertex="1">
                    <mxGeometry x="430" y="790" width="130" height="30" as="geometry"/>
                </mxCell>
                <mxCell id="42" value="Recipe name" style="rounded=0;whiteSpace=wrap;html=1;" parent="1" vertex="1">
                    <mxGeometry x="430" y="830" width="130" height="30" as="geometry"/>
                </mxCell>
                <mxCell id="43" value="Add recipe" style="rounded=1;whiteSpace=wrap;html=1;" parent="1" vertex="1">
                    <mxGeometry x="430" y="590" width="60" height="20" as="geometry"/>
                </mxCell>
                <mxCell id="44" value="Admin view of All user's recipes" style="text;html=1;strokeColor=none;fillColor=none;align=center;verticalAlign=middle;whiteSpace=wrap;rounded=0;" parent="1" vertex="1">
                    <mxGeometry x="440.31" y="520" width="109.38" height="30" as="geometry"/>
                </mxCell>
                <mxCell id="45" value="Logout" style="rounded=1;whiteSpace=wrap;html=1;" parent="1" vertex="1">
                    <mxGeometry x="500" y="140" width="60" height="20" as="geometry"/>
                </mxCell>
                <mxCell id="46" value="Logout" style="rounded=1;whiteSpace=wrap;html=1;" parent="1" vertex="1">
                    <mxGeometry x="500" y="590" width="60" height="20" as="geometry"/>
                </mxCell>
                <mxCell id="47" value="" style="endArrow=classic;html=1;entryX=0;entryY=0.5;entryDx=0;entryDy=0;" parent="1" target="18" edge="1">
                    <mxGeometry width="50" height="50" relative="1" as="geometry">
                        <mxPoint x="320" y="280" as="sourcePoint"/>
                        <mxPoint x="370" y="210" as="targetPoint"/>
                    </mxGeometry>
                </mxCell>
                <mxCell id="48" value="" style="endArrow=classic;html=1;entryX=0;entryY=0;entryDx=0;entryDy=0;exitX=1;exitY=1;exitDx=0;exitDy=0;" parent="1" source="2" target="36" edge="1">
                    <mxGeometry width="50" height="50" relative="1" as="geometry">
                        <mxPoint x="320" y="285" as="sourcePoint"/>
                        <mxPoint x="370" y="235" as="targetPoint"/>
                    </mxGeometry>
                </mxCell>
                <mxCell id="49" value="" style="endArrow=classic;html=1;exitX=1;exitY=0;exitDx=0;exitDy=0;entryX=0;entryY=1;entryDx=0;entryDy=0;" parent="1" source="36" target="20" edge="1">
                    <mxGeometry width="50" height="50" relative="1" as="geometry">
                        <mxPoint x="600" y="560" as="sourcePoint"/>
                        <mxPoint x="650" y="510" as="targetPoint"/>
                    </mxGeometry>
                </mxCell>
                <mxCell id="50" value="" style="endArrow=classic;html=1;entryX=0;entryY=0.5;entryDx=0;entryDy=0;exitX=1;exitY=0.5;exitDx=0;exitDy=0;" parent="1" source="18" target="20" edge="1">
                    <mxGeometry width="50" height="50" relative="1" as="geometry">
                        <mxPoint x="550" y="410" as="sourcePoint"/>
                        <mxPoint x="600" y="360" as="targetPoint"/>
                        <Array as="points"/>
                    </mxGeometry>
                </mxCell>
                <mxCell id="52" value="&lt;p style=&quot;line-height: 120%;&quot;&gt;&lt;font style=&quot;font-size: 11px;&quot;&gt;id: binary_id&lt;/font&gt;&lt;/p&gt;&lt;p style=&quot;line-height: 120%;&quot;&gt;&lt;font style=&quot;font-size: 11px;&quot;&gt;admin: &lt;/font&gt;&lt;font style=&quot;font-size: 11px;&quot;&gt;BOOLEAN&lt;/font&gt;&lt;/p&gt;&lt;p style=&quot;line-height: 120%; font-size: 11px;&quot;&gt;&lt;font style=&quot;font-size: 11px;&quot;&gt;username: STRING&lt;/font&gt;&lt;/p&gt;&lt;p style=&quot;line-height: 120%; font-size: 11px;&quot;&gt;&lt;font style=&quot;font-size: 11px;&quot;&gt;hashed_password: STRING&lt;/font&gt;&lt;/p&gt;&lt;p style=&quot;line-height: 120%; font-size: 11px;&quot;&gt;&lt;font style=&quot;font-size: 11px;&quot;&gt;inserted_at: date&lt;/font&gt;&lt;/p&gt;&lt;p style=&quot;line-height: 120%; font-size: 11px;&quot;&gt;&lt;font style=&quot;font-size: 11px;&quot;&gt;updated_at: date&lt;/font&gt;&lt;/p&gt;" style="rounded=0;whiteSpace=wrap;html=1;align=center;" parent="1" vertex="1">
                    <mxGeometry x="40" y="560" width="102.5" height="180" as="geometry"/>
                </mxCell>
                <mxCell id="53" value="&lt;p style=&quot;line-height: 120%;&quot;&gt;&lt;span style=&quot;font-size: 11px;&quot;&gt;id: binary_id&lt;/span&gt;&lt;/p&gt;&lt;p style=&quot;line-height: 120%;&quot;&gt;&lt;span style=&quot;font-size: 11px;&quot;&gt;user: has_one&lt;/span&gt;&lt;/p&gt;&lt;p style=&quot;line-height: 120%;&quot;&gt;&lt;span style=&quot;font-size: 11px;&quot;&gt;dish: string&lt;/span&gt;&lt;/p&gt;&lt;p style=&quot;line-height: 120%;&quot;&gt;&lt;span style=&quot;font-size: 11px;&quot;&gt;instructions: string&lt;/span&gt;&lt;/p&gt;&lt;p style=&quot;line-height: 120%;&quot;&gt;&lt;span style=&quot;font-size: 11px;&quot;&gt;ingredients: string&lt;/span&gt;&lt;/p&gt;&lt;p style=&quot;line-height: 13.2px; font-size: 11px;&quot;&gt;inserted_at: date&lt;/p&gt;&lt;p style=&quot;line-height: 13.2px; font-size: 11px;&quot;&gt;updated_at: date&lt;/p&gt;" style="rounded=0;whiteSpace=wrap;html=1;align=center;" vertex="1" parent="1">
                    <mxGeometry x="217.5" y="560" width="102.5" height="180" as="geometry"/>
                </mxCell>
                <mxCell id="54" value="Recipe" style="rounded=0;whiteSpace=wrap;html=1;" vertex="1" parent="1">
                    <mxGeometry x="217.5" y="530" width="102.5" height="20" as="geometry"/>
                </mxCell>
                <mxCell id="56" value="" style="curved=1;endArrow=classic;html=1;entryX=1.009;entryY=0.119;entryDx=0;entryDy=0;entryPerimeter=0;exitX=0.009;exitY=0.214;exitDx=0;exitDy=0;exitPerimeter=0;" edge="1" parent="1" source="53" target="52">
                    <mxGeometry width="50" height="50" relative="1" as="geometry">
                        <mxPoint x="280" y="660" as="sourcePoint"/>
                        <mxPoint x="330" y="610" as="targetPoint"/>
                        <Array as="points">
                            <mxPoint x="180" y="599"/>
                            <mxPoint x="180" y="580"/>
                        </Array>
                    </mxGeometry>
                </mxCell>
            </root>
        </mxGraphModel>
    </diagram>
</mxfile>